<?xml version="1.0" encoding="utf-8"?>
<!-- Generator: Adobe Illustrator 16.0.0, SVG Export Plug-In . SVG Version: 6.00 Build 0)  -->
<!DOCTYPE svg PUBLIC "-//W3C//DTD SVG 1.1//EN" "http://www.w3.org/Graphics/SVG/1.1/DTD/svg11.dtd">
<svg version="1.1" id="Layer_1" xmlns="http://www.w3.org/2000/svg" xmlns:xlink="http://www.w3.org/1999/xlink" x="0px" y="0px"
	 width="79.6px" height="109.8px" viewBox="0 0 79.6 109.8" style="enable-background:new 0 0 79.6 109.8;" xml:space="preserve">
<style type="text/css">
<![CDATA[
	.st0{fill:#FFFFFF;}
]]>
</style>
<g id="Logo-white" transform="translate(-2283 5590.021)">
	<g id="group" transform="translate(0.395 84.802)">
		<path id="path" class="st0" d="M2285.7-5586.7l-0.1-0.8h-0.1l-0.1,0.8c-0.1,0.6-0.2,1.3-0.2,1.9c-0.1,0.3-0.1,0.7-0.1,1
			c0,0.2-0.2,0.4-0.5,0.5c-0.2,0-0.4-0.2-0.5-0.5c-0.1-0.6-0.2-1.1-0.3-1.6c-0.1-0.5-0.2-0.8-0.2-1.3c-0.1-0.3-0.1-0.6-0.2-1
			c-0.2-0.7-0.3-1.6-0.5-2.3h0.6c0.1,0.6,0.3,1.5,0.4,2.1c0.1,0.7,0.3,1.6,0.4,2.4c0.1,0.3,0.1,0.6,0.1,0.8l0.1,0.7h0.1l0.1-0.7
			c0.1-0.5,0.1-1,0.2-1.5c0.1-0.6,0.2-1.1,0.2-1.6c0.1-0.2,0.2-0.3,0.5-0.3c0.2,0,0.4,0.1,0.5,0.3l0.4,3.1l0.1,0.7h0.1l0.1-0.7
			c0.3-1.8,0.6-3.6,0.9-5.4h0.6l-1.2,6.2c-0.1,0.3-0.3,0.5-0.5,0.5s-0.4-0.2-0.5-0.5L2285.7-5586.7z"/>
		<path id="path-2" class="st0" d="M2289.8-5585h-0.8v0.3c0,0.5,0.4,0.8,0.8,0.8c0.3,0,0.7-0.2,0.8-0.5l0.5,0.3
			c-0.3,0.4-0.8,0.7-1.4,0.7c-0.8,0-1.5-0.6-1.5-1.4c0,0,0,0,0,0v-1.7c0-0.8,0.6-1.5,1.4-1.5c0,0,0,0,0,0c0.8,0,1.5,0.7,1.5,1.5
			C2291.3-5585.7,2290.7-5585.1,2289.8-5585C2289.9-5585,2289.8-5585,2289.8-5585z M2289.8-5585.6c0.5,0,0.8-0.4,0.8-0.8
			c0-0.5-0.4-0.8-0.8-0.8c-0.5,0-0.8,0.4-0.8,0.8c0,0,0,0,0,0v0.8L2289.8-5585.6z"/>
		<path id="path-3" class="st0" d="M2292.1-5584.7v-1.8c0-0.8,0.7-1.4,1.5-1.4c0.3,0,0.7,0.2,0.8,0.5v-2.4h0.6v6.5h-0.5l-0.1-0.4
			c-0.2,0.3-0.5,0.5-0.8,0.5C2292.9-5583.2,2292.2-5583.9,2292.1-5584.7z M2292.8-5584.7c0,0.5,0.4,0.9,0.9,0.8
			c0.4,0,0.8-0.3,0.8-0.7c0,0,0,0,0,0v-1.9c0-0.4-0.3-0.8-0.7-0.8c0,0-0.1,0-0.1,0c-0.5,0-0.9,0.3-0.9,0.8V-5584.7z"/>
		<path id="path-4" class="st0" d="M2296-5584.7v-1.8c0-0.8,0.7-1.4,1.5-1.4c0.3,0,0.7,0.2,0.8,0.5v-2.4h0.6v6.5h-0.5l-0.1-0.4
			c-0.2,0.3-0.5,0.5-0.8,0.5C2296.7-5583.2,2296.1-5583.9,2296-5584.7z M2296.6-5584.7c0,0.5,0.4,0.9,0.9,0.8c0.4,0,0.8-0.3,0.8-0.7
			c0,0,0,0,0,0v-1.9c0-0.4-0.3-0.8-0.7-0.8c0,0-0.1,0-0.1,0c-0.5,0-0.9,0.3-0.9,0.8V-5584.7z"/>
		<path id="path-5" class="st0" d="M2300.6-5588.5c0,0.2-0.2,0.4-0.4,0.4c-0.2,0-0.4-0.2-0.4-0.4c0-0.2,0.2-0.4,0.4-0.4
			S2300.6-5588.8,2300.6-5588.5z M2300.5-5583.3h-0.6v-4.5h0.6V-5583.3z"/>
		<path id="path-6" class="st0" d="M2302-5586.4v3.1h-0.6v-4.5h0.5l0.1,0.5c0.2-0.3,0.5-0.5,0.9-0.5c0.8,0,1.4,0.7,1.5,1.5v3.1h-0.6
			v-3.1c0-0.5-0.4-0.8-0.8-0.8C2302.4-5587.3,2302-5586.9,2302-5586.4L2302-5586.4z"/>
		<path id="path-7" class="st0" d="M2306.7-5581.4c-0.4,0-0.8-0.2-1.1-0.5l0.3-0.5c0.2,0.2,0.5,0.3,0.8,0.3c0.5,0,0.9-0.4,0.9-0.8
			v-1c-0.2,0.3-0.5,0.5-0.8,0.5c-0.8,0-1.4-0.6-1.5-1.4c0,0,0,0,0-0.1v-1.8c0.1-0.8,0.7-1.4,1.5-1.4c0.4,0,0.7,0.2,0.9,0.5l0.1-0.5
			h0.5v5C2308.2-5582,2307.5-5581.4,2306.7-5581.4z M2305.9-5584.7c-0.1,1,1.7,1.1,1.7,0.1v-2c-0.1-0.4-0.4-0.7-0.8-0.7
			c-0.5,0-0.9,0.4-0.9,0.8L2305.9-5584.7z"/>
		<path id="path-8" class="st0" d="M2315.2-5585c0,0.9-0.7,1.7-1.7,1.7c0,0,0,0-0.1,0c-0.9,0.1-1.6-0.5-1.7-1.4c0-0.1,0-0.1,0-0.2
			v-3.6c0-0.9,0.7-1.6,1.6-1.6c0.1,0,0.1,0,0.2,0c0.9,0,1.7,0.7,1.7,1.6c0,0,0,0.1,0,0.1h-0.6c0-0.6-0.5-1.1-1.1-1.1c0,0,0,0-0.1,0
			c-0.6-0.1-1.1,0.4-1.1,0.9c0,0,0,0,0,0v3.6c0,0.6,0.5,1,1.1,1c0,0,0,0,0,0c0.6,0,1.1-0.5,1.1-1.1c0,0,0,0,0-0.1H2315.2z"/>
		<path id="path-9" class="st0" d="M2316.8-5588.5c0,0.2-0.2,0.4-0.4,0.4c-0.2,0-0.4-0.2-0.4-0.4c0-0.2,0.2-0.4,0.4-0.4c0,0,0,0,0,0
			C2316.6-5588.9,2316.8-5588.8,2316.8-5588.5z M2316.7-5583.3h-0.6v-4.5h0.6V-5583.3z"/>
		<path id="path-10" class="st0" d="M2318.2-5586.4v3.1h-0.6v-4.5h0.5l0.1,0.5c0.2-0.3,0.5-0.5,0.9-0.5c0.8,0,1.4,0.7,1.5,1.5v3.1
			h-0.6v-3.1c0-0.5-0.4-0.8-0.8-0.8C2318.6-5587.3,2318.2-5586.9,2318.2-5586.4C2318.2-5586.4,2318.2-5586.4,2318.2-5586.4z"/>
		<path id="path-11" class="st0" d="M2322.8-5585h-0.8v0.3c0,0.5,0.4,0.8,0.8,0.8c0.3,0,0.7-0.2,0.8-0.5l0.5,0.3
			c-0.3,0.4-0.8,0.7-1.4,0.7c-0.8,0-1.5-0.6-1.5-1.4c0,0,0,0,0,0v-1.7c0-0.8,0.6-1.5,1.4-1.5c0,0,0,0,0,0c0.8,0,1.5,0.7,1.5,1.5
			C2324.3-5585.7,2323.6-5585,2322.8-5585z M2322.8-5585.6c0.5,0,0.8-0.4,0.8-0.8c0-0.5-0.4-0.8-0.8-0.8c-0.5,0-0.8,0.4-0.8,0.8
			c0,0,0,0,0,0v0.8L2322.8-5585.6z"/>
		<path id="path-12" class="st0" d="M2325.8-5583.3h-0.6v-4.5h0.5l0.1,0.5c0.2-0.3,0.5-0.5,0.9-0.5c0.5,0,1,0.3,1.1,0.8
			c0.2-0.5,0.7-0.8,1.2-0.8c0.8,0,1.4,0.7,1.4,1.5v3.1h-0.6v-3.1c0-0.5-0.4-0.8-0.8-0.8s-0.8,0.4-0.8,0.8v3.1h-0.6v-3.1
			c0-0.5-0.4-0.8-0.8-0.8c-0.5,0-0.8,0.4-0.8,0.8L2325.8-5583.3L2325.8-5583.3z"/>
		<path id="path-13" class="st0" d="M2331.4-5584.7v-0.3c0-0.8,0.7-1.5,1.5-1.5c0.4,0,0.7,0.2,0.9,0.5v-0.5c0-0.5-0.4-0.8-0.8-0.8
			c-0.3,0-0.5,0.1-0.7,0.3l-0.3-0.5c0.3-0.3,0.7-0.4,1.1-0.5c0.8,0,1.5,0.7,1.5,1.5v3.1h-0.5l-0.1-0.4c-0.2,0.3-0.5,0.5-0.9,0.5
			c-0.8,0.1-1.5-0.5-1.5-1.3C2331.4-5584.6,2331.4-5584.7,2331.4-5584.7z M2332.8-5583.9c0.5,0,0.8-0.2,0.8-0.6v-0.7
			c0-0.4-0.4-0.8-0.8-0.7c0,0,0,0,0,0c-0.5,0-0.8,0.4-0.8,0.8v0.3C2331.9-5584.3,2332.3-5583.9,2332.8-5583.9
			C2332.8-5583.9,2332.8-5583.9,2332.8-5583.9L2332.8-5583.9z"/>
		<path id="path-14" class="st0" d="M2336.8-5587.8v0.6h-1v2.4c0.1,0.5,0.5,0.9,1.1,0.9v0.6c-0.8,0.1-1.6-0.6-1.6-1.4c0,0,0,0,0,0
			v-5h0.6v1.9L2336.8-5587.8L2336.8-5587.8z"/>
		<path id="path-15" class="st0" d="M2340.4-5584.7c0,0.8-0.6,1.5-1.4,1.5c0,0-0.1,0-0.1,0c-0.8,0-1.5-0.6-1.5-1.4c0,0,0,0,0-0.1
			v-1.7c0-0.8,0.6-1.4,1.3-1.5c0.1,0,0.1,0,0.2,0c0.8-0.1,1.5,0.5,1.5,1.3c0,0,0,0.1,0,0.1L2340.4-5584.7z M2339.8-5586.4
			c0-0.5-0.4-0.9-0.9-0.9s-0.9,0.4-0.9,0.9v1.7c0,0.5,0.4,0.9,0.9,0.9s0.9-0.4,0.9-0.9V-5586.4z"/>
		<path id="path-16" class="st0" d="M2342.8-5581.4c-0.4,0-0.8-0.2-1.1-0.5l0.3-0.5c0.2,0.2,0.5,0.3,0.8,0.3c0.5,0,0.9-0.4,0.9-0.8
			v-1c-0.2,0.3-0.5,0.5-0.8,0.5c-0.8,0-1.4-0.6-1.5-1.4c0,0,0,0,0-0.1v-1.8c0.1-0.8,0.7-1.4,1.5-1.4c0.4,0,0.7,0.2,0.9,0.5l0.1-0.5
			h0.5v5C2344.2-5582,2343.6-5581.4,2342.8-5581.4z M2341.9-5584.7c-0.1,1,1.7,1.1,1.7,0.1v-2c-0.1-0.4-0.4-0.7-0.8-0.7
			c-0.5,0-0.9,0.4-0.9,0.8L2341.9-5584.7z"/>
		<path id="path-17" class="st0" d="M2345.1-5583.3v-4.5h0.6l0.1,0.5c0.1-0.3,0.4-0.5,0.8-0.5c0.3,0,0.5,0.1,0.7,0.2l-0.2,0.6
			c-0.4-0.3-0.9-0.2-1.1,0.1c-0.1,0.1-0.1,0.2-0.2,0.4v3.3H2345.1z"/>
		<path id="path-18" class="st0" d="M2347.3-5584.7v-0.3c0-0.8,0.7-1.5,1.5-1.5c0.4,0,0.7,0.2,0.9,0.5v-0.5c0-0.5-0.4-0.8-0.8-0.8
			c-0.3,0-0.5,0.1-0.7,0.3l-0.3-0.5c0.3-0.3,0.7-0.4,1.1-0.5c0.8,0,1.5,0.7,1.5,1.5v3.1h-0.5l-0.1-0.4c-0.2,0.3-0.5,0.5-0.9,0.5
			C2348-5583.3,2347.3-5583.8,2347.3-5584.7C2347.3-5584.7,2347.3-5584.7,2347.3-5584.7z M2348.7-5583.9c0.5,0,0.8-0.2,0.8-0.6v-0.7
			c0-0.4-0.4-0.8-0.8-0.7c0,0,0,0,0,0c-0.5,0-0.8,0.4-0.8,0.8v0.3c0,0.4,0.3,0.9,0.7,0.9C2348.6-5583.9,2348.7-5583.9,2348.7-5583.9
			L2348.7-5583.9z"/>
		<path id="path-19" class="st0" d="M2354-5586.5v1.8c0,0.8-0.7,1.4-1.5,1.4c-0.3,0-0.7-0.2-0.8-0.5v2.4h-0.6v-6.5h0.5l0.1,0.4
			c0.2-0.3,0.5-0.5,0.8-0.5C2353.3-5587.9,2354-5587.3,2354-5586.5z M2353.4-5586.5c0-0.5-0.4-0.9-0.9-0.8c-0.4,0-0.8,0.3-0.8,0.7
			c0,0,0,0,0,0v1.9c0,0.4,0.3,0.8,0.7,0.8c0,0,0.1,0,0.1,0c0.5,0,0.9-0.3,0.9-0.8V-5586.5z"/>
		<path id="path-20" class="st0" d="M2355.5-5586.4v3.1h-0.6v-6.4h0.6v2.5c0.1-0.3,0.5-0.6,0.8-0.6c0.8,0,1.4,0.6,1.5,1.4
			c0,0,0,0.1,0,0.1v3.1h-0.6v-3.1c0-0.5-0.4-0.8-0.8-0.8c0,0,0,0,0,0C2355.9-5587.2,2355.5-5586.9,2355.5-5586.4
			C2355.5-5586.5,2355.5-5586.4,2355.5-5586.4z"/>
		<path id="path-21" class="st0" d="M2360.2-5581.4c-0.4,0-0.8-0.2-1.2-0.5l0.4-0.5c0.2,0.2,0.5,0.3,0.8,0.3c0.5,0,0.8-0.4,0.8-0.8
			v-0.9c-0.2,0.3-0.5,0.5-0.8,0.5c-0.8,0-1.4-0.6-1.5-1.4v-3.2h0.6v3.2c0,0.5,0.4,0.9,0.9,0.8c0.5,0,0.8-0.2,0.8-0.7v-3.3h0.6v5
			C2361.6-5582,2361-5581.4,2360.2-5581.4z"/>
	</g>
	<g id="group-2" transform="translate(0 -0.005)">
		<g id="group-3" transform="translate(0 83.002)">
			<path id="path-22" class="st0" d="M2342-5578.9c-2.7-1.7-6.4-1.5-10.2,0.5c-0.5,0.2-1,0.5-1.6,0.8c-1.9-1-4.6-0.7-6.5-0.1
				c-1-1.2-2-2.5-2.8-3.8h-0.6c0.9,1.4,1.9,2.7,2.9,4c-1.2,0.6-2.3,1.3-3.4,2c-0.1,0.1-0.2,0.1-0.3,0.2c-1.4-1.7-3.2-3.1-5.2-4.1
				c-2.4-1.2-5.2-0.8-7.2,1c-1.5,1.4-2.1,3.5-1.5,5.4c0.5,1.5,1.5,2.8,2.9,3.5c2.3,1.1,4.9,1.1,7.2,0.1c0.9-0.4,1.8-0.8,2.7-1.3
				c2.4,2.5,5,5,8.5,6.4c3.1,1.3,6.6,1.3,9.6-0.1c1.8-0.8,3.1-2.5,3.6-4.4c0.2-0.7,0.2-1.4,0.1-2.1c0.5-0.1,1-0.4,1.5-0.7
				c1.4-0.8,2.2-2.3,2.1-3.9C2344-5576.8,2343.2-5578.2,2342-5578.9z M2330.6-5577.2c0.3,0.2,0.6,0.4,0.9,0.7
				c0.5,0.4,0.9,0.9,1.2,1.5c-0.6,0.5-1,1.1-1.2,1.8c-0.1,0.2-0.2,0.4-0.2,0.7c-0.2-0.1-0.3-0.2-0.5-0.2c-1.4-0.7-2.8-1.6-4.2-2.5
				C2327.8-5575.9,2329.5-5576.6,2330.6-5577.2L2330.6-5577.2z M2335.9-5571.9c0.4,0.2,0.7,0.7,0.6,1.1c-1-0.1-2-0.4-2.9-0.7
				c0.3-1.2,0.1-2.4-0.5-3.5c0.4-0.3,0.9-0.5,1.5-0.6c1.5-0.3,3,0.2,4.1,1.4c0.8,0.9,1.3,2,1.4,3.2c-1,0.2-2.1,0.3-3.2,0.2
				c0.1-0.6-0.2-1.1-0.7-1.4c-0.1,0-0.2,0-0.2,0.1S2335.8-5571.8,2335.9-5571.9L2335.9-5571.9z M2331.7-5569.8L2331.7-5569.8
				c-0.9,0.7-2.1,1.1-3.3,1.1c-2.4,0-4.3-1.6-6.3-3.8c1.1-0.6,1.9-1.3,3.1-1.9c0.4-0.2,0.6-0.3,0.9-0.5c1.4,0.9,3,1.7,4.5,2.4
				c0.2,0.1,0.3,0.2,0.5,0.3C2331-5571.4,2331.2-5570.5,2331.7-5569.8L2331.7-5569.8z M2331.3-5572.1c0.5,0.3,1,0.5,1.6,0.7
				c-0.2,0.6-0.6,1.1-1,1.5l0,0C2331.5-5570.5,2331.3-5571.3,2331.3-5572.1L2331.3-5572.1z M2333.4-5571.2c1,0.3,2,0.6,3,0.7
				c-0.2,0.9-1,1.6-1.9,1.7c-0.8,0.1-1.6-0.1-2.3-0.7C2332.8-5570,2333.2-5570.6,2333.4-5571.2L2333.4-5571.2z M2333-5571.6
				c-0.5-0.2-1.1-0.5-1.6-0.7c0.1-0.2,0.1-0.5,0.2-0.7c0.2-0.6,0.6-1.2,1.1-1.6C2333.2-5573.8,2333.3-5572.7,2333-5571.6
				L2333-5571.6z M2329.9-5577.5c-1,0.5-2.7,1.2-3.8,1.8c-0.7-0.5-1.3-1.1-1.9-1.7C2325.9-5577.9,2328.3-5578.3,2329.9-5577.5
				L2329.9-5577.5z M2320.1-5574.9c1.1-0.8,2.3-1.5,3.6-2.1c0.6,0.6,1.3,1.1,2,1.6c-0.3,0.2-0.5,0.2-0.7,0.4c-1.2,0.7-2,1.4-3.2,2
				c-0.3-0.3-0.6-0.7-1-1.1c-0.2-0.3-0.5-0.5-0.7-0.8C2320-5574.8,2320.1-5574.9,2320.1-5574.9L2320.1-5574.9z M2315.6-5569.9
				c-2.2,1-4.7,1-6.9,0.1c-1.3-0.7-2.3-1.8-2.8-3.3c-0.5-1.8,0-3.8,1.4-5.1c1.9-1.7,4.6-2.1,6.9-1c1.9,1,3.6,2.3,5,4l-1.2,0.7
				c-0.7,0.4-1.3,0.7-1.9,1l-0.7-0.8c-1-1.2-2.5-1.9-4.1-1.9c-1-0.1-2,0.5-2.2,1.5c0,1.2,0.8,2.2,1.9,2.5c1.2,0.5,2.7,0.5,5.3-0.8
				l0.5,0.5c0.4,0.5,0.8,0.8,1.2,1.3C2317.3-5570.7,2316.5-5570.3,2315.6-5569.9L2315.6-5569.9z M2316-5573.4
				c-2.5,1.1-3.8,1.1-5,0.7c-1.1-0.4-1.7-1.1-1.6-2c0.2-0.9,1.1-1.5,2-1.3c1.5,0,2.9,0.7,3.9,1.9L2316-5573.4z M2318.4-5571.2
				c-0.4-0.5-0.8-0.9-1.2-1.4l-0.5-0.5c0.6-0.3,1.2-0.6,1.7-0.9c0.4-0.2,0.8-0.5,1.3-0.7c0.3,0.3,0.5,0.6,0.8,0.8
				c0.3,0.3,0.6,0.7,0.9,1C2320.4-5572.2,2319.3-5571.7,2318.4-5571.2L2318.4-5571.2z M2339.7-5568.9c-0.5,1.7-1.6,3.1-3.2,3.9
				c-3,1.4-6.4,1.5-9.4,0.3c-3.2-1.4-6-3.5-8.3-6.1c1-0.5,2-1.1,3-1.6c2.1,2.2,4.3,4,6.8,4.1c1.2,0,2.4-0.3,3.4-1
				c0.7,0.6,1.6,0.9,2.5,0.8c1-0.1,1.9-0.9,2.1-1.9c1.1,0.1,2.2,0.1,3.2-0.2C2339.9-5570.1,2339.9-5569.4,2339.7-5568.9
				L2339.7-5568.9z M2341.8-5571.7c-0.4,0.3-0.9,0.5-1.4,0.6c-0.1-1.2-0.6-2.3-1.4-3.3c-1.2-1.3-2.9-1.9-4.6-1.5
				c-0.6,0.2-1.1,0.4-1.6,0.7c-0.3-0.6-0.8-1.1-1.2-1.5c-0.2-0.2-0.5-0.4-0.8-0.6c0.5-0.2,0.9-0.5,1.3-0.6c3.5-1.7,7.4-2.2,9.8-0.7
				c1.2,0.7,1.9,2,1.9,3.3C2343.9-5573.9,2343.1-5572.5,2341.8-5571.7z"/>
			<g id="group-4">
				<path id="path-23" class="st0" d="M2283.2-5589.6h79.2c0.1,0,0.2-0.1,0.2-0.2c0-0.1-0.1-0.2-0.2-0.2c0,0,0,0,0,0h-79.2
					c-0.1,0-0.2,0.1-0.2,0.2C2283-5589.7,2283.1-5589.6,2283.2-5589.6C2283.2-5589.6,2283.2-5589.6,2283.2-5589.6z"/>
			</g>
			<path id="path-24" class="st0" d="M2362.2-5578.9h-20.8l1,0.5h19.9c0.1,0,0.2-0.1,0.2-0.2
				C2362.5-5578.8,2362.4-5578.9,2362.2-5578.9z"/>
			<path id="path-25" class="st0" d="M2308.3-5578.9h-24.8c-0.1,0-0.2,0.1-0.3,0.2c0,0.1,0.1,0.2,0.2,0.3c0,0,0.1,0,0.1,0h24
				L2308.3-5578.9z"/>
		</g>
		<g id="group-5" transform="translate(19.015 62.972)">
			<path id="path-26" class="st0" d="M2289.8-5590l-2.8,17.7h-1.3l-2.8-17.7h1l2.4,15.3l2.4-15.3H2289.8z"/>
			<path id="path-27" class="st0" d="M2298.4-5573v0.7h-6.4v-17.7h6.4v0.7h-5.3v7.1h4.2v0.7h-4.3v8.4L2298.4-5573L2298.4-5573z"/>
			<path id="path-28" class="st0" d="M2303.9-5581.2h-2.9v8.9h-1v-17.7h4.5c1.2,0,2.3,1,2.3,2.3v4.3c0,1.1-0.8,2-1.8,2.3l2.7,8.9
				h-1.1L2303.9-5581.2z M2301.1-5581.9h3.5c0.8-0.1,1.3-0.8,1.2-1.5v-4.3c0.1-0.8-0.5-1.4-1.2-1.5h-3.6L2301.1-5581.9
				L2301.1-5581.9z"/>
			<path id="path-29" class="st0" d="M2316.2-5587.7v13.1c0,1.2-1,2.3-2.3,2.3h-4.6v-17.7h4.6c1.2-0.1,2.2,0.8,2.3,2
				C2316.2-5587.9,2316.2-5587.8,2316.2-5587.7z M2315.2-5574.6v-13.1c0.1-0.8-0.5-1.4-1.2-1.5h-3.6v16.2h3.6
				C2314.7-5573.1,2315.3-5573.8,2315.2-5574.6z"/>
			<path id="path-30" class="st0" d="M2325.5-5573v0.7h-6.4v-17.7h6.4v0.7h-5.3v7.1h4.3v0.7h-4.3v8.4L2325.5-5573L2325.5-5573z"/>
		</g>
		<g id="group-6" transform="translate(9.907)">
			<g id="group-7">
				<path id="path-31" class="st0" d="M2308.2-5534.8c0.9,1.1,2,1.9,3.3,2.4c-2.9-0.2-5.3-2.2-5-4.6c2.8,1.9,4.9,0.8,5.2,3.9v0.2
					C2310.5-5533.3,2309.3-5533.9,2308.2-5534.8"/>
				<path id="path-32" class="st0" d="M2310.1-5539.5c0.4,2.5-0.6,2.5-0.2,3.7c0.4,0.1,0.8,0.2,1.2,0.5c0.2-0.8,0.3-1.7,0.1-2.5
					c0.5,0.9,0.6,2,0.4,3c0.3,0.4,0.4,0.9,0.5,1.4c1.3-1.8,0.8-4.3-1-5.6C2310.7-5539.2,2310.4-5539.3,2310.1-5539.5"/>
				<path id="path-33" class="st0" d="M2310.6-5533c0.6,0.2,1.2,0.5,1.8,0.7c-0.3-0.2-0.4-0.6-0.5-0.9c0.4,0.6,0.8,1.1,1.4,1.5
					c0,0.1-0.1,0.1-0.1,0.1C2312.3-5532.1,2311.3-5532.6,2310.6-5533"/>
				<path id="path-34" class="st0" d="M2317.4-5534.8c-0.9,1.1-2,1.9-3.3,2.4c2.9-0.2,5.3-2.2,5-4.6c-2.8,1.9-4.9,0.8-5.2,3.9v0.2
					C2315.2-5533.3,2316.4-5533.9,2317.4-5534.8"/>
				<path id="path-35" class="st0" d="M2315.6-5539.5c-0.4,2.5,0.6,2.5,0.2,3.7c-0.4,0.1-0.8,0.2-1.2,0.5c-0.2-0.8-0.2-1.7-0.1-2.5
					c-0.5,0.9-0.6,2-0.4,3c-0.3,0.4-0.4,0.9-0.5,1.4c-1.3-1.8-0.8-4.3,1-5.6C2315-5539.2,2315.3-5539.3,2315.6-5539.5"/>
				<path id="path-36" class="st0" d="M2315.1-5533c-0.6,0.2-1.2,0.5-1.8,0.7c0.3-0.2,0.4-0.6,0.5-0.9c-0.4,0.6-0.8,1.1-1.4,1.5
					c0,0.1,0.1,0.1,0.1,0.1C2313.3-5532.1,2314.3-5532.6,2315.1-5533"/>
				<path id="path-37" class="st0" d="M2323.4-5534.8c-1.3,0.4-2.7,0.5-4,0.4c2.6,1.3,5.6,0.8,6.6-1.4c-3.3,0.2-4.6-1.8-6.4,0.7
					c-0.1,0.1-0.1,0.1-0.1,0.2C2320.7-5534.6,2322.1-5534.6,2323.4-5534.8"/>
				<path id="path-38" class="st0" d="M2324.2-5539.8c-1.6,1.9-0.7,2.4-1.7,3.3c-0.4-0.1-0.8-0.2-1.2-0.2c0.3-0.8,0.7-1.6,1.2-2.3
					c-0.9,0.6-1.6,1.4-1.9,2.4c-0.4,0.2-0.8,0.5-1.1,1c-0.1-2.2,1.5-4.1,3.8-4.3C2323.6-5539.9,2323.9-5539.8,2324.2-5539.8"/>
				<path id="path-39" class="st0" d="M2320.5-5534.5c-0.6-0.1-1.3-0.2-1.9-0.3c0.3-0.1,0.6-0.3,0.8-0.5c-0.6,0.3-1.3,0.5-2,0.6
					c-0.1,0.1,0,0.1,0.1,0.1C2318.5-5534.6,2319.5-5534.5,2320.5-5534.5"/>
				<path id="path-40" class="st0" d="M2328.6-5537.6c-1.4,1-3.9,1.1-3.8,1.1c2.7,0.8,5.6-0.2,6.1-2.6c-3.2,0.8-4.7-0.9-6,1.8
					c-0.1,0.1-0.1,0.1-0.1,0.2C2326-5537,2327.3-5537.2,2328.6-5537.6"/>
				<path id="path-41" class="st0" d="M2328.4-5542.6c-1.2,2.1-0.2,2.5-1,3.4c-0.4-0.1-0.8,0-1.2,0.1c0.1-0.8,0.4-1.6,0.8-2.4
					c-0.8,0.7-1.3,1.6-1.4,2.7c-0.4,0.3-0.7,0.7-0.9,1.1c-0.5-2.1,0.7-4.2,2.8-4.8C2327.8-5542.5,2328.1-5542.6,2328.4-5542.6"/>
				<path id="path-42" class="st0" d="M2325.8-5536.8c-0.6,0-1.3,0.1-1.9,0.1c0.3-0.1,0.6-0.4,0.7-0.7c-0.6,0.4-1.1,0.7-1.7,1
					c0,0.1,0,0.1,0.1,0.1C2324-5536.5,2324.9-5536.6,2325.8-5536.8"/>
				<path id="path-43" class="st0" d="M2333.1-5541.4c-1,0.9-2.2,1.5-3.4,1.7c2.8,0.2,5.4-1.2,5.4-3.6c-2.9,1.4-4.7,0-5.5,2.9
					c0,0.1-0.1,0.1-0.1,0.2C2330.7-5540.3,2332-5540.7,2333.1-5541.4"/>
				<path id="path-44" class="st0" d="M2332.1-5546.1c-0.7,2.3,0.2,2.4-0.3,3.5c-0.4,0-0.8,0.1-1.2,0.3c-0.1-0.8,0-1.7,0.3-2.4
					c-0.6,0.8-0.9,1.8-0.8,2.8c-0.3,0.3-0.5,0.8-0.6,1.2c-0.9-1.9-0.1-4.2,1.8-5.1C2331.5-5546,2331.8-5546.1,2332.1-5546.1"/>
				<path id="path-45" class="st0" d="M2330.6-5540.1c-0.6,0.1-1.2,0.3-1.8,0.4c0.3-0.2,0.5-0.5,0.6-0.8c-0.5,0.5-1,0.9-1.5,1.2
					c0,0.1,0,0.1,0.1,0.1C2328.8-5539.4,2329.8-5539.8,2330.6-5540.1"/>
				<path id="path-46" class="st0" d="M2336.7-5546c-0.8,1-1.8,1.8-3,2.3c2.7-0.3,4.9-2.2,4.5-4.5c-2.5,1.9-4.5,0.9-4.7,3.8v0.2
					C2334.7-5544.5,2335.8-5545.2,2336.7-5546"/>
				<path id="path-47" class="st0" d="M2334.9-5550.3c-0.3,2.3,0.7,2.3,0.3,3.4c-0.4,0.1-0.8,0.3-1.1,0.5c-0.2-0.8-0.3-1.6-0.1-2.4
					c-0.4,0.9-0.5,1.9-0.3,2.9c-0.2,0.4-0.3,0.8-0.4,1.3c-1.2-1.7-0.9-4.1,0.9-5.3C2334.4-5550.1,2334.6-5550.2,2334.9-5550.3"/>
				<path id="path-48" class="st0" d="M2334.6-5544.3c-0.6,0.2-1.1,0.5-1.7,0.7c0.2-0.2,0.4-0.5,0.4-0.8c-0.4,0.5-0.8,1-1.2,1.5
					c0,0.1,0.1,0.1,0.1,0C2333-5543.4,2333.9-5543.9,2334.6-5544.3"/>
				<path id="path-49" class="st0" d="M2339.4-5551.1c-0.6,1.1-1.4,2.1-2.4,2.8c2.5-0.7,4.3-3,3.5-5.1c-2.1,2.3-4.2,1.7-3.8,4.5v0.2
					C2337.7-5549.3,2338.6-5550.1,2339.4-5551.1"/>
				<path id="path-50" class="st0" d="M2336.9-5554.9c0.2,2.3,1.1,2,0.9,3.2c-0.4,0.2-0.7,0.4-1,0.7c-0.3-0.7-0.5-1.5-0.6-2.3
					c-0.2,0.9-0.1,1.9,0.3,2.8c-0.2,0.4-0.2,0.9-0.1,1.3c-1.5-1.3-1.6-3.6-0.3-5.1C2336.3-5554.5,2336.6-5554.7,2336.9-5554.9"/>
				<path id="path-51" class="st0" d="M2337.6-5549.1c-0.5,0.3-1,0.7-1.5,1c0.2-0.3,0.3-0.6,0.2-0.9c-0.2,0.6-0.5,1.1-0.9,1.6
					c0,0.1,0.1,0.1,0.1,0C2336.3-5547.9,2337-5548.5,2337.6-5549.1"/>
				<path id="path-52" class="st0" d="M2341.2-5556.4c-0.4,1.2-1,2.2-1.8,3.1c2.3-1.2,3.6-3.7,2.4-5.5c-1.6,2.5-3.7,2.4-2.9,5
					c0,0.1,0.1,0.1,0.1,0.2C2339.1-5553.5,2340.3-5554.9,2341.2-5556.4"/>
				<path id="path-53" class="st0" d="M2338-5559.7c0.6,2.1,1.4,1.7,1.5,2.9c-0.3,0.2-0.6,0.5-0.8,0.8c-0.5-0.6-0.8-1.3-1-2.1
					c-0.1,0.9,0.2,1.9,0.7,2.7c-0.1,0.4,0,0.9,0.1,1.3c-1.7-1.1-2.1-3.3-1.1-5C2337.7-5559.3,2337.9-5559.5,2338-5559.7"/>
				<path id="path-54" class="st0" d="M2339.9-5554.2l-1.2,1.2c0.1-0.3,0.1-0.6,0.1-0.9c-0.1,0.6-0.3,1.2-0.6,1.7
					c0,0.1,0.1,0.1,0.1,0C2338.8-5552.8,2339.4-5553.6,2339.9-5554.2"/>
				<path id="path-55" class="st0" d="M2341.8-5562c-0.2,1.2-0.6,2.3-1.2,3.3c2-1.6,2.8-4.2,1.3-5.8c-1,2.7-3.1,2.9-1.9,5.3
					c0.1,0.1,0.1,0.1,0.1,0.2C2340.9-5559.9,2341.4-5560.9,2341.8-5562"/>
				<path id="path-56" class="st0" d="M2338.1-5564.6c0.9,2,1.6,1.5,2,2.5c-0.3,0.2-0.5,0.6-0.6,0.9c-0.6-0.5-1-1.1-1.3-1.8
					c0.1,0.9,0.5,1.7,1.2,2.4c0,0.4,0.1,0.8,0.3,1.2c-1.8-0.7-2.7-2.7-2-4.5C2337.8-5564.1,2337.9-5564.4,2338.1-5564.6"/>
				<path id="path-57" class="st0" d="M2340.9-5559.7c-0.3,0.5-0.6,1-1,1.4c0-0.3,0-0.6-0.1-0.8c0,0.6-0.1,1.2-0.2,1.8
					c0,0.1,0.1,0,0.1-0.1C2340.1-5558.1,2340.6-5559,2340.9-5559.7"/>
				<path id="path-58" class="st0" d="M2341.4-5567.4c0.1,1.2-0.1,2.3-0.5,3.4c1.6-1.9,1.9-4.5,0.2-5.8c-0.5,2.8-2.4,3.4-0.8,5.4
					c0.1,0.1,0.1,0.1,0.1,0.2C2340.9-5565.2,2341.2-5566.3,2341.4-5567.4"/>
				<path id="path-59" class="st0" d="M2337.4-5569.1c1.2,1.7,1.9,1.1,2.3,2.1c-0.2,0.3-0.4,0.6-0.4,1c-0.6-0.4-1.2-0.9-1.6-1.5
					c0.3,0.8,0.8,1.6,1.6,2c0.1,0.4,0.3,0.8,0.6,1.1c-1.9-0.4-3.1-2.2-2.7-4.1C2337.3-5568.6,2337.3-5568.9,2337.4-5569.1"/>
				<path id="path-60" class="st0" d="M2341-5565c-0.2,0.5-0.5,1.1-0.7,1.5c0-0.3-0.1-0.6-0.3-0.8c0.1,0.6,0.1,1.2,0.1,1.7
					c0,0.1,0.1,0,0.1-0.1C2340.5-5563.3,2340.8-5564.1,2341-5565"/>
				<path id="path-61" class="st0" d="M2339.8-5572.7c0.3,1.1,0.3,2.2,0.1,3.3c1.2-2.1,1-4.6-0.8-5.5c0.1,2.8-1.7,3.7,0.2,5.3
					c0.1,0.1,0.1,0.1,0.1,0.1C2339.6-5569.4,2339.8-5571.1,2339.8-5572.7"/>
				<path id="path-62" class="st0" d="M2335.7-5573.7c1.5,1.4,2,0.7,2.6,1.6c-0.1,0.3-0.2,0.7-0.2,1c-0.7-0.3-1.3-0.7-1.8-1.1
					c0.4,0.8,1.1,1.4,1.9,1.7c0.1,0.4,0.4,0.7,0.7,1c-1.9-0.1-3.3-1.6-3.3-3.5C2335.7-5573.2,2335.7-5573.4,2335.7-5573.7"/>
				<path id="path-63" class="st0" d="M2339.9-5570.3c-0.1,0.5-0.2,1.1-0.3,1.6c0-0.3-0.2-0.5-0.4-0.7c0.2,0.5,0.3,1.1,0.4,1.6
					c0.1,0,0.1,0,0.1-0.1C2339.7-5568.6,2339.8-5569.6,2339.9-5570.3"/>
				<path id="path-64" class="st0" d="M2337.5-5577.5c0.5,1,0.7,2.1,0.7,3.2c0.8-2.2,0.1-4.6-1.8-5.1c0.5,2.7-1,3.8,1.2,5.1
					c0.1,0,0.1,0.1,0.2,0.1C2337.9-5575.4,2337.8-5576.5,2337.5-5577.5"/>
				<path id="path-65" class="st0" d="M2333.5-5577.6c1.7,1.1,2,0.3,2.8,1c-0.1,0.3-0.1,0.7,0,1c-0.7-0.1-1.4-0.4-1.9-0.8
					c0.5,0.7,1.3,1.1,2.1,1.2c0.2,0.3,0.5,0.6,0.8,0.8c-1.8,0.3-3.4-0.8-3.8-2.6C2333.5-5577.1,2333.5-5577.4,2333.5-5577.6"/>
				<path id="path-66" class="st0" d="M2338.1-5575.2c0,0.5,0,1.1-0.1,1.6c-0.1-0.2-0.3-0.5-0.5-0.6c0.3,0.5,0.5,1,0.7,1.5
					c0.1,0,0.1,0,0.1-0.1C2338.3-5573.6,2338.1-5574.5,2338.1-5575.2"/>
				<path id="path-67" class="st0" d="M2334.5-5581.4c0.6,0.9,1.1,1.8,1.3,2.9c0.3-2.3-0.8-4.4-2.7-4.6c1,2.4-0.2,3.8,2.1,4.6
					c0.1,0,0.1,0.1,0.2,0.1C2335.2-5579.5,2334.9-5580.5,2334.5-5581.4"/>
				<path id="path-68" class="st0" d="M2330.6-5580.8c1.8,0.7,2-0.1,2.8,0.5c0,0.3,0.1,0.7,0.2,1c-0.7,0-1.4-0.1-2-0.4
					c0.6,0.5,1.4,0.8,2.3,0.8c0.3,0.3,0.6,0.5,1,0.6c-1.6,0.7-3.4-0.1-4-1.6C2330.7-5580.3,2330.6-5580.6,2330.6-5580.8"/>
				<path id="path-69" class="st0" d="M2335.4-5579.3c0.1,0.5,0.2,1,0.2,1.5c-0.1-0.2-0.4-0.4-0.6-0.5c0.4,0.4,0.7,0.8,1,1.3
					c0.1,0,0.1,0,0.1-0.1C2335.9-5577.8,2335.6-5578.7,2335.4-5579.3"/>
				<path id="path-70" class="st0" d="M2330.8-5584.8c0.8,0.7,1.4,1.6,1.7,2.5c-0.1-2.2-1.5-4.1-3.4-3.8c1.4,2.1,0.5,3.7,2.8,4h0.2
					C2331.8-5583,2331.4-5583.9,2330.8-5584.8"/>
				<path id="path-71" class="st0" d="M2327.1-5583.5c1.9,0.3,1.9-0.5,2.8-0.1c0.1,0.3,0.2,0.6,0.3,0.9c-0.6,0.1-1.3,0.1-1.9,0
					c0.7,0.4,1.5,0.5,2.3,0.3c0.3,0.2,0.6,0.3,1,0.4c-1.4,0.9-3.3,0.5-4.3-0.9C2327.3-5583,2327.2-5583.2,2327.1-5583.5"/>
				<path id="path-72" class="st0" d="M2332-5583c0.2,0.5,0.4,1,0.5,1.4c-0.2-0.2-0.4-0.3-0.7-0.4c0.4,0.3,0.8,0.7,1.1,1.1
					c0.1,0,0.1,0,0-0.1C2332.7-5581.7,2332.4-5582.3,2332-5583"/>
				<path id="path-73" class="st0" d="M2326.7-5587.4c0.9,0.5,1.6,1.2,2.1,2.1c-0.5-2.1-2.2-3.6-4-3c1.7,1.7,1.1,3.4,3.4,3.3h0.2
					C2328.1-5585.9,2327.4-5586.8,2326.7-5587.4"/>
				<path id="path-74" class="st0" d="M2323.5-5585.5c1.9,0,1.7-0.7,2.7-0.6c0.1,0.3,0.3,0.6,0.5,0.8c-0.6,0.3-1.2,0.4-1.9,0.3
					c0.7,0.3,1.5,0.2,2.3-0.1c0.3,0.1,0.7,0.2,1.1,0.2c-1.2,1.1-3.1,1.1-4.2-0.1C2323.7-5585.1,2323.6-5585.3,2323.5-5585.5"/>
				<path id="path-75" class="st0" d="M2328.2-5585.9c0.3,0.4,0.5,0.8,0.7,1.2c-0.2-0.1-0.4-0.2-0.7-0.2c0.5,0.2,0.9,0.5,1.3,0.8
					c0.1,0,0.1-0.1,0-0.1C2329.2-5584.7,2328.6-5585.4,2328.2-5585.9"/>
				<path id="path-76" class="st0" d="M2322.2-5589.1c0.9,0.3,1.7,0.9,2.4,1.6c-0.8-1.9-2.8-3-4.3-2.2c2,1.4,1.7,3,3.8,2.5
					c0.1,0,0.1,0,0.2-0.1C2323.7-5588,2323-5588.7,2322.2-5589.1"/>
				<path id="path-77" class="st0" d="M2319.5-5586.7c1.7-0.3,1.5-1,2.4-1.1c0.2,0.3,0.4,0.5,0.6,0.7c-0.5,0.4-1.1,0.6-1.7,0.7
					c0.8,0.1,1.5-0.1,2.1-0.5c0.3,0.1,0.7,0.1,1-0.1c-0.9,1.3-2.7,1.6-4,0.7C2319.8-5586.4,2319.6-5586.6,2319.5-5586.7"/>
				<path id="path-78" class="st0" d="M2323.9-5588c0.3,0.3,0.6,0.6,0.9,1c-0.2-0.1-0.5-0.1-0.7-0.1c0.5,0.1,0.9,0.3,1.4,0.6
					c0.1,0,0.1-0.1,0-0.1C2325-5587,2324.4-5587.6,2323.9-5588"/>
				<path id="path-79" class="st0" d="M2302.3-5534.8c1.3,0.4,2.7,0.5,4,0.4c-2.6,1.3-5.7,0.8-6.6-1.4c3.3,0.2,4.6-1.8,6.4,0.7
					c0.1,0.1,0.1,0.1,0.1,0.2C2304.9-5534.6,2303.6-5534.6,2302.3-5534.8"/>
				<path id="path-80" class="st0" d="M2301.4-5539.8c1.6,1.9,0.7,2.4,1.7,3.3c0.4-0.1,0.8-0.2,1.2-0.2c-0.3-0.8-0.7-1.6-1.2-2.3
					c0.9,0.6,1.6,1.4,1.9,2.4c0.4,0.2,0.8,0.5,1.1,1c0.1-2.2-1.6-4.1-3.8-4.3C2302-5539.9,2301.7-5539.8,2301.4-5539.8"/>
				<path id="path-81" class="st0" d="M2305.1-5534.5c0.6-0.1,1.3-0.2,1.9-0.3c-0.3-0.1-0.6-0.3-0.8-0.5c0.6,0.3,1.3,0.5,2,0.6
					c0,0.1,0,0.1-0.1,0.1C2307.1-5534.6,2306.1-5534.5,2305.1-5534.5"/>
				<path id="path-82" class="st0" d="M2297.1-5537.6c1.4,1,3.9,1.1,3.8,1.1c-2.8,0.8-5.6-0.2-6.1-2.6c3.2,0.8,4.7-0.9,6,1.8
					c0.1,0.1,0.1,0.1,0.1,0.2C2299.6-5537,2298.3-5537.2,2297.1-5537.6"/>
				<path id="path-83" class="st0" d="M2297.2-5542.6c1.2,2.1,0.2,2.5,1,3.4c0.4-0.1,0.8,0,1.2,0.1c-0.1-0.8-0.4-1.6-0.8-2.4
					c0.8,0.7,1.3,1.6,1.4,2.7c0.4,0.3,0.7,0.7,0.9,1.1c0.5-2.1-0.8-4.3-2.9-4.8C2297.7-5542.5,2297.5-5542.6,2297.2-5542.6"/>
				<path id="path-84" class="st0" d="M2299.8-5536.8c0.6,0,1.3,0.1,1.9,0.1c-0.3-0.1-0.6-0.4-0.7-0.7c0.6,0.4,1.1,0.7,1.7,1
					c0,0.1,0,0.1-0.1,0.1C2301.7-5536.5,2300.7-5536.6,2299.8-5536.8"/>
				<path id="path-85" class="st0" d="M2292.6-5541.4c1,0.9,2.2,1.5,3.4,1.7c-2.8,0.2-5.4-1.2-5.4-3.6c2.9,1.4,4.7,0,5.5,2.9
					c0,0.1,0.1,0.1,0.1,0.2C2294.9-5540.3,2293.7-5540.7,2292.6-5541.4"/>
				<path id="path-86" class="st0" d="M2293.6-5546.1c0.7,2.3-0.2,2.4,0.3,3.5c0.4,0,0.8,0.1,1.2,0.3c0.1-0.8-0.1-1.7-0.3-2.4
					c0.6,0.8,0.9,1.8,0.8,2.8c0.3,0.3,0.5,0.8,0.6,1.2c0.9-1.9,0.1-4.2-1.8-5.1C2294.1-5546,2293.9-5546.1,2293.6-5546.1"/>
				<path id="path-87" class="st0" d="M2295-5540.1c0.6,0.1,1.2,0.3,1.8,0.4c-0.3-0.2-0.5-0.5-0.6-0.8c0.5,0.5,1,0.9,1.5,1.2
					c0,0.1,0,0.1-0.1,0.1C2296.8-5539.4,2295.8-5539.8,2295-5540.1"/>
				<path id="path-88" class="st0" d="M2288.9-5546c0.8,1,1.8,1.8,3,2.3c-2.7-0.3-4.9-2.2-4.5-4.5c2.5,1.9,4.5,0.9,4.7,3.8v0.2
					C2290.9-5544.5,2289.8-5545.2,2288.9-5546"/>
				<path id="path-89" class="st0" d="M2290.7-5550.3c0.3,2.3-0.7,2.3-0.3,3.4c0.4,0.1,0.8,0.3,1.1,0.5c0.2-0.8,0.3-1.6,0.1-2.4
					c0.4,0.9,0.5,1.9,0.3,2.9c0.2,0.4,0.4,0.8,0.4,1.3c1.2-1.7,0.9-4.1-0.8-5.3C2291.2-5550.1,2291-5550.2,2290.7-5550.3"/>
				<path id="path-90" class="st0" d="M2291-5544.3c0.6,0.2,1.1,0.5,1.7,0.7c-0.2-0.2-0.4-0.5-0.4-0.8c0.4,0.5,0.8,1,1.2,1.5
					c0,0.1-0.1,0.1-0.1,0C2292.6-5543.4,2291.7-5543.9,2291-5544.3"/>
				<path id="path-91" class="st0" d="M2286.2-5551.1c0.6,1.1,1.4,2.1,2.4,2.8c-2.5-0.7-4.3-3-3.5-5.1c2.1,2.3,4.2,1.7,3.8,4.5v0.2
					C2287.9-5549.3,2287-5550.1,2286.2-5551.1"/>
				<path id="path-92" class="st0" d="M2288.8-5554.9c-0.1,2.3-1.1,2-0.9,3.2c0.4,0.2,0.7,0.4,1,0.7c0.3-0.7,0.5-1.5,0.6-2.3
					c0.2,0.9,0.1,1.9-0.3,2.8c0.2,0.4,0.2,0.9,0.1,1.3c1.5-1.3,1.6-3.6,0.3-5.1C2289.3-5554.5,2289.1-5554.7,2288.8-5554.9"/>
				<path id="path-93" class="st0" d="M2287.9-5549.1c0.5,0.3,1,0.7,1.5,1c-0.2-0.3-0.3-0.6-0.2-0.9c0.2,0.6,0.5,1.1,0.9,1.6
					c0,0.1-0.1,0.1-0.1,0C2289.3-5547.9,2288.5-5548.5,2287.9-5549.1"/>
				<path id="path-94" class="st0" d="M2284.4-5556.4c0.4,1.2,1,2.2,1.8,3.1c-2.3-1.2-3.6-3.7-2.4-5.5c1.6,2.5,3.7,2.4,2.9,5
					c0,0.1-0.1,0.1-0.1,0.2C2286.6-5553.5,2285.3-5554.9,2284.4-5556.4"/>
				<path id="path-95" class="st0" d="M2287.6-5559.7c-0.6,2.1-1.4,1.7-1.5,2.9c0.3,0.2,0.6,0.5,0.8,0.8c0.5-0.6,0.8-1.3,1-2.1
					c0.1,1-0.2,1.9-0.8,2.7c0.1,0.4,0,0.9-0.1,1.3c1.7-1,2.2-3.2,1.2-4.9C2288-5559.2,2287.8-5559.5,2287.6-5559.7"/>
				<path id="path-96" class="st0" d="M2285.7-5554.2l1.2,1.2c-0.1-0.3-0.1-0.6-0.1-0.9c0.1,0.6,0.3,1.2,0.6,1.7
					c0,0.1-0.1,0.1-0.1,0C2286.8-5552.8,2286.2-5553.5,2285.7-5554.2"/>
				<path id="path-97" class="st0" d="M2283.9-5562c0.2,1.2,0.6,2.3,1.2,3.3c-2-1.6-2.8-4.2-1.3-5.8c1,2.7,3.1,2.9,1.9,5.3
					c-0.1,0.1-0.1,0.1-0.1,0.2C2284.7-5559.9,2284.2-5560.9,2283.9-5562"/>
				<path id="path-98" class="st0" d="M2287.5-5564.6c-0.9,2-1.6,1.5-2,2.5c0.3,0.2,0.5,0.6,0.6,0.9c0.6-0.5,1-1.1,1.3-1.8
					c-0.1,0.9-0.5,1.7-1.2,2.4c0,0.4-0.1,0.8-0.3,1.2c1.8-0.6,2.7-2.6,2-4.4C2287.8-5564,2287.7-5564.3,2287.5-5564.6"/>
				<path id="path-99" class="st0" d="M2284.7-5559.7c0.3,0.5,0.6,1,1,1.4c0-0.3,0-0.6,0.1-0.8c0,0.6,0.1,1.2,0.2,1.8
					c0,0.1-0.1,0-0.1-0.1C2285.5-5558.1,2285.1-5559,2284.7-5559.7"/>
				<path id="path-100" class="st0" d="M2284.3-5567.4c-0.1,1.2,0.1,2.3,0.5,3.4c-1.6-1.9-1.9-4.5-0.2-5.8c0.5,2.8,2.4,3.4,0.8,5.4
					c-0.1,0.1-0.1,0.1-0.1,0.2C2284.7-5565.2,2284.4-5566.3,2284.3-5567.4"/>
				<path id="path-101" class="st0" d="M2288.2-5569.1c-1.2,1.7-1.9,1.1-2.3,2.1c0.2,0.3,0.4,0.6,0.4,1c0.6-0.4,1.1-0.9,1.6-1.5
					c-0.3,0.8-0.8,1.6-1.6,2c-0.1,0.4-0.3,0.8-0.6,1.1c1.9-0.4,3.1-2.2,2.7-4.1C2288.4-5568.6,2288.3-5568.9,2288.2-5569.1"/>
				<path id="path-102" class="st0" d="M2284.6-5565c0.2,0.5,0.5,1.1,0.7,1.5c0-0.3,0.1-0.6,0.3-0.8c-0.1,0.6-0.1,1.2-0.1,1.7
					c0,0.1-0.1,0-0.1-0.1C2285.1-5563.3,2284.8-5564.2,2284.6-5565"/>
				<path id="path-103" class="st0" d="M2285.8-5572.7c-0.3,1.1-0.3,2.2-0.1,3.3c-1.2-2.1-1-4.6,0.8-5.5c-0.1,2.8,1.7,3.7-0.2,5.3
					c-0.1,0.1-0.1,0.1-0.1,0.1C2286.1-5569.4,2285.7-5571.1,2285.8-5572.7"/>
				<path id="path-104" class="st0" d="M2289.9-5573.7c-1.5,1.4-2,0.7-2.6,1.6c0.1,0.3,0.2,0.7,0.2,1c0.7-0.3,1.3-0.7,1.8-1.1
					c-0.4,0.8-1.1,1.4-1.9,1.7c-0.1,0.4-0.4,0.7-0.7,1c1.9-0.1,3.4-1.6,3.3-3.5C2290-5573.2,2290-5573.4,2289.9-5573.7"/>
				<path id="path-105" class="st0" d="M2285.7-5570.3c0.1,0.5,0.2,1.1,0.3,1.6c0-0.3,0.2-0.5,0.4-0.7c-0.2,0.5-0.4,1.1-0.4,1.6
					c0,0-0.1,0-0.1-0.1c0,0,0,0,0,0C2285.9-5568.6,2285.8-5569.6,2285.7-5570.3"/>
				<path id="path-106" class="st0" d="M2288-5577.5c-0.5,1-0.7,2.1-0.7,3.2c-0.8-2.2-0.1-4.6,1.8-5.1c-0.5,2.7,1,3.8-1.2,5.1
					c-0.1,0-0.1,0.1-0.2,0.1C2287.7-5575.4,2287.8-5576.5,2288-5577.5"/>
				<path id="path-107" class="st0" d="M2292.1-5577.6c-1.7,1.1-2,0.3-2.8,1c0.1,0.3,0.1,0.7,0,1c0.7-0.1,1.4-0.4,1.9-0.8
					c-0.5,0.7-1.3,1.1-2.1,1.2c-0.2,0.3-0.5,0.6-0.8,0.8c1.7,0.3,3.4-0.8,3.8-2.5C2292.1-5577.1,2292.1-5577.3,2292.1-5577.6"/>
				<path id="path-108" class="st0" d="M2287.5-5575.2c0,0.5,0,1.1,0.1,1.6c0.1-0.2,0.3-0.5,0.5-0.6c-0.3,0.5-0.5,1-0.7,1.5
					c-0.1,0-0.1,0-0.1-0.1C2287.4-5573.6,2287.4-5574.4,2287.5-5575.2"/>
				<path id="path-109" class="st0" d="M2291.1-5581.4c-0.6,0.9-1.1,1.8-1.3,2.9c-0.3-2.3,0.8-4.4,2.7-4.6c-1,2.4,0.2,3.8-2.1,4.6
					c-0.1,0-0.1,0.1-0.2,0.1C2290.4-5579.5,2290.7-5580.5,2291.1-5581.4"/>
				<path id="path-110" class="st0" d="M2295-5580.8c-1.8,0.7-2-0.1-2.8,0.5c0,0.3-0.1,0.7-0.2,1c0.7,0,1.4-0.1,2-0.4
					c-0.6,0.5-1.4,0.8-2.3,0.8c-0.3,0.3-0.6,0.5-1,0.6c1.5,0.7,3.3,0,4-1.6C2294.9-5580.3,2294.9-5580.5,2295-5580.8"/>
				<path id="path-111" class="st0" d="M2290.2-5579.3c-0.1,0.5-0.2,1-0.2,1.5c0.1-0.2,0.4-0.4,0.6-0.5c-0.4,0.4-0.7,0.8-1,1.3
					c-0.1,0-0.1,0-0.1-0.1C2289.7-5577.9,2289.9-5578.6,2290.2-5579.3"/>
				<path id="path-112" class="st0" d="M2294.9-5584.8c-0.8,0.7-1.4,1.6-1.7,2.5c0.1-2.2,1.5-4.1,3.4-3.8c-1.4,2.1-0.5,3.7-2.8,4
					h-0.2C2293.8-5583,2294.3-5583.9,2294.9-5584.8"/>
				<path id="path-113" class="st0" d="M2298.5-5583.5c-1.9,0.3-1.9-0.5-2.8-0.1c-0.1,0.3-0.2,0.6-0.3,0.9c0.7,0.1,1.3,0.1,2,0
					c-0.7,0.4-1.5,0.5-2.3,0.3c-0.3,0.2-0.6,0.4-1,0.4c1.4,0.9,3.3,0.5,4.2-0.9C2298.3-5583,2298.4-5583.3,2298.5-5583.5"/>
				<path id="path-114" class="st0" d="M2293.6-5583c-0.2,0.5-0.4,1-0.5,1.4c0.2-0.2,0.4-0.3,0.7-0.4c-0.4,0.3-0.8,0.7-1.1,1.1
					c-0.1,0-0.1,0,0-0.1C2292.9-5581.7,2293.3-5582.3,2293.6-5583"/>
				<path id="path-115" class="st0" d="M2298.9-5587.4c-1.1,0.6-2.1,2.2-2.1,2.1c0.5-2.1,2.2-3.6,3.9-3c-1.7,1.7-1.1,3.4-3.4,3.3
					h-0.2C2297.6-5585.9,2298.2-5586.7,2298.9-5587.4"/>
				<path id="path-116" class="st0" d="M2302.2-5585.5c-1.9,0-1.7-0.7-2.7-0.6c-0.1,0.3-0.3,0.6-0.5,0.8c0.6,0.3,1.2,0.4,1.9,0.3
					c-0.7,0.3-1.5,0.2-2.3-0.1c-0.3,0.1-0.7,0.2-1.1,0.2c1.2,1.1,3.1,1.1,4.2-0.1C2301.9-5585.1,2302-5585.3,2302.2-5585.5"/>
				<path id="path-117" class="st0" d="M2297.4-5585.9c-0.2,0.4-0.5,0.8-0.7,1.2c0.2-0.2,0.4-0.3,0.7-0.3c-0.5,0.2-0.9,0.5-1.3,0.8
					c-0.1,0-0.1-0.1,0-0.1C2296.4-5584.7,2297-5585.4,2297.4-5585.9"/>
				<path id="path-118" class="st0" d="M2303.4-5589.1c-0.9,0.3-1.7,0.9-2.4,1.6c0.8-1.9,2.8-3,4.3-2.2c-2,1.4-1.7,3-3.8,2.5
					c-0.1,0-0.1,0-0.2-0.1C2301.9-5588,2302.6-5588.6,2303.4-5589.1"/>
				<path id="path-119" class="st0" d="M2306.2-5586.7c-1.7-0.3-1.5-1-2.4-1.1c-0.2,0.3-0.4,0.5-0.6,0.7c0.5,0.4,1.1,0.6,1.7,0.7
					c-0.8,0.1-1.5-0.1-2.1-0.5c-0.3,0.1-0.7,0.1-1-0.1c0.9,1.3,2.7,1.6,4,0.7C2305.8-5586.4,2306-5586.6,2306.2-5586.7"/>
				<path id="path-120" class="st0" d="M2301.7-5588c-0.3,0.3-0.6,0.6-0.9,1c0.2-0.1,0.5-0.1,0.7-0.1c-0.5,0.1-0.9,0.3-1.4,0.6
					c-0.1,0-0.1-0.1,0-0.1C2300.6-5587,2301.2-5587.6,2301.7-5588"/>
			</g>
			<g id="group-8" transform="translate(9.446 13.15)">
				<path id="path-121" class="st0" d="M2307.6-5582.7h7.7v0.9c-1,0.1-1.9,0.6-2.4,1.5c-0.9,1.3-1.7,2.7-2.3,4.2l-6.9,17.3h-0.9
					l-8.5-20.2c-0.3-0.8-0.7-1.6-1.2-2.3c-0.6-0.4-1.3-0.5-2-0.5v-0.9h10v0.9h-0.2c-0.6,0-1.2,0.1-1.7,0.4c-0.4,0.2-0.6,0.6-0.6,1.1
					c0.1,0.2,0.1,0.4,0.1,0.6c0.1,0.3,0.1,0.6,0.2,1l6,14.4l4.3-10.9c0.5-1.2,0.8-2.4,0.9-3.7c0-0.8-0.2-1.5-0.7-2.1
					c-0.5-0.5-1.2-0.8-1.9-0.7L2307.6-5582.7L2307.6-5582.7z M2312.6-5581.8h-3.3c0.9,0.6,1.5,1.6,1.4,2.7
					C2311.1-5580.2,2311.7-5581.1,2312.6-5581.8z M2294.8-5579.2l8.2,19.5c0.3-0.4,0.4-0.8,0.5-1.3c-0.1-0.5-0.2-1-0.5-1.4l-7-16.7
					c-0.2-0.6-0.5-1.1-0.8-1.6c-0.2-0.4-0.5-0.7-0.8-0.8c-0.5-0.2-1-0.3-1.5-0.3c0.4,0.1,0.7,0.4,1,0.8
					C2294.3-5580.6,2294.6-5579.9,2294.8-5579.2z"/>
				<path id="path-122" class="st0" d="M2291.6-5590h2l-8.5,7.4l17.9,27l-20-26.9L2291.6-5590z"/>
				<path id="path-123" class="st0" d="M2315.3-5590h-2.1l8.3,7.4l-17.8,27l19.9-26.9L2315.3-5590z"/>
				<path id="path-124" class="st0" d="M2311.4-5588.3l6.3,5.5l-14.7,28l17-27.9l-8.1-7.4h-16.6l-2.1,1.7H2311.4z"/>
				<path id="path-125" class="st0" d="M2295.2-5588.3l-6.4,5.5l14.8,28l-17-27.9l8.1-7.4h16.6l2.1,1.7H2295.2z"/>
			</g>
		</g>
	</g>
</g>
</svg>
