<?xml version="1.0" encoding="utf-8"?>
<!-- Generator: Adobe Illustrator 16.0.0, SVG Export Plug-In . SVG Version: 6.00 Build 0)  -->
<!DOCTYPE svg PUBLIC "-//W3C//DTD SVG 1.1//EN" "http://www.w3.org/Graphics/SVG/1.1/DTD/svg11.dtd">
<svg version="1.1" id="Layer_1" xmlns="http://www.w3.org/2000/svg" xmlns:xlink="http://www.w3.org/1999/xlink" x="0px" y="0px"
	 width="25.5px" height="25.8px" viewBox="0 0 25.5 25.8" style="enable-background:new 0 0 25.5 25.8;" xml:space="preserve">
<style type="text/css">
<![CDATA[
	.st0{fill:#FFFFFF;}
]]>
</style>
<g id="group-6" transform="translate(1155 41)">
	<path id="path" class="st0" d="M-1142.3-41c-7.1,0.1-12.8,5.8-12.7,12.9c0,7.1,5.7,12.9,12.7,12.9c7.1-0.1,12.8-5.8,12.7-12.9
		C-1129.5-35.2-1135.2-40.9-1142.3-41z M-1139.1-27.6h-2.1v7.5h-3.1v-7.5h-1.5v-2.6h1.5V-32c-0.1-1.6,1-3,2.6-3.1c0.2,0,0.3,0,0.5,0
		l2.3,0v2.6h-1.7c-0.3,0-0.6,0.3-0.7,0.6c0,0,0,0.1,0,0.1v1.6h2.3L-1139.1-27.6z"/>
</g>
</svg>
