<?xml version="1.0" encoding="utf-8"?>
<!-- Generator: Adobe Illustrator 16.0.0, SVG Export Plug-In . SVG Version: 6.00 Build 0)  -->
<!DOCTYPE svg PUBLIC "-//W3C//DTD SVG 1.1//EN" "http://www.w3.org/Graphics/SVG/1.1/DTD/svg11.dtd">
<svg version="1.1" id="Layer_1" xmlns="http://www.w3.org/2000/svg" xmlns:xlink="http://www.w3.org/1999/xlink" x="0px" y="0px"
	 width="25.5px" height="25.8px" viewBox="0 0 25.5 25.8" style="enable-background:new 0 0 25.5 25.8;" xml:space="preserve">
<style type="text/css">
<![CDATA[
	.st0{fill:#FFFFFF;}
]]>
</style>
<g id="group-5" transform="translate(1202.999 41)">
	<path id="path-2" class="st0" d="M-1190.3-25.5c1.4,0,2.6-1.2,2.6-2.6c0-0.5-0.2-1.1-0.5-1.5c-0.8-1.1-2.4-1.4-3.5-0.6
		c-0.2,0.2-0.5,0.4-0.6,0.6c-0.3,0.4-0.5,1-0.5,1.5C-1192.8-26.7-1191.7-25.5-1190.3-25.5z"/>
	<path id="path-3" class="st0" d="M-1184.7-31.2v-2.5h-0.3l-2.1,0l0,2.5L-1184.7-31.2z"/>
	<path id="path-4" class="st0" d="M-1190.3-41c-7.1,0.1-12.8,5.8-12.7,12.9c0,7.1,5.7,12.9,12.7,12.9c7.1-0.1,12.8-5.8,12.7-12.9
		C-1177.5-35.2-1183.2-40.9-1190.3-41z M-1183-29.6v6c0,1.6-1.2,2.8-2.8,2.8h-8.9c-1.6,0-2.8-1.3-2.8-2.8v-9c0-1.6,1.2-2.8,2.8-2.8
		h8.9c1.6,0,2.8,1.3,2.8,2.8L-1183-29.6z"/>
	<path id="path-5" class="st0" d="M-1186.3-28.1c0,2.2-1.7,4-3.9,4.1c-2.2,0-4-1.7-4.1-3.9c0-0.1,0-0.1,0-0.2c0-0.5,0.1-1,0.3-1.5
		h-2.2v6c0,0.8,0.6,1.4,1.4,1.4h8.9c0.8,0,1.4-0.6,1.4-1.4v-6h-2.2C-1186.4-29.1-1186.3-28.6-1186.3-28.1z"/>
</g>
</svg>
