<?xml version="1.0" encoding="utf-8"?>
<!-- Generator: Adobe Illustrator 16.0.0, SVG Export Plug-In . SVG Version: 6.00 Build 0)  -->
<!DOCTYPE svg PUBLIC "-//W3C//DTD SVG 1.1//EN" "http://www.w3.org/Graphics/SVG/1.1/DTD/svg11.dtd">
<svg version="1.1" id="Layer_1" xmlns="http://www.w3.org/2000/svg" xmlns:xlink="http://www.w3.org/1999/xlink" x="0px" y="0px"
	 width="1000px" height="736.422px" viewBox="0 0 1000 736.422" enable-background="new 0 0 1000 736.422" xml:space="preserve">
<rect display="none" width="1000" height="736.422"/>
<text transform="matrix(1 0 0 1 343.2178 593.8291)" fill="#FFFFFF" font-family="'Roboto-Light'" font-size="92" letter-spacing="5">VERD</text>
<text transform="matrix(1 0 0 1 601.4902 593.8291)" fill="#FFFFFF" font-family="'Roboto-Light'" font-size="92">E</text>
<path fill="#FFFFFF" d="M0,720.823c0,0,15.626-0.238,42.968-0.661c27.344-0.272,66.408-0.943,113.282-1.253
	c46.875-0.278,101.561-0.913,160.154-1.041c58.592-0.146,121.094-0.3,183.592-0.454c62.5,0.154,125.006,0.304,183.598,0.449
	c58.592,0.112,113.28,0.757,160.152,1.041c46.877,0.299,85.938,0.979,113.28,1.253c27.346,0.423,42.973,0.666,42.973,0.666
	s-15.627,0.242-42.973,0.665c-27.343,0.271-66.403,0.947-113.28,1.253c-46.872,0.277-101.562,0.923-160.152,1.036
	c-58.592,0.145-121.099,0.294-183.598,0.448c-62.498-0.154-125-0.31-183.592-0.453c-58.594-0.13-113.279-0.759-160.154-1.036
	c-46.874-0.311-85.938-0.98-113.282-1.255C15.626,721.059,0,720.823,0,720.823"/>
<text transform="matrix(1 0 0 1 106.1875 682.0566)" fill="#FFFFFF" font-family="'Roboto-Regular'" font-size="52.4445" letter-spacing="23">CINE</text>
<text transform="matrix(1 0 0 1 320.6787 682.0566)" fill="#FFFFFF" font-family="'Roboto-Regular'" font-size="52.4445" letter-spacing="23">M</text>
<text transform="matrix(1 0 0 1 390.8184 682.0566)" fill="#FFFFFF" font-family="'Roboto-Regular'" font-size="52.4445" letter-spacing="19">A</text>
<text transform="matrix(1 0 0 1 445.3335 682.0566)" fill="#FFFFFF" font-family="'Roboto-Regular'" font-size="52.4445" letter-spacing="22">T</text>
<text transform="matrix(1 0 0 1 499.1895 682.0566)" fill="#FFFFFF" font-family="'Roboto-Regular'" font-size="52.4445" letter-spacing="23">O</text>
<text transform="matrix(1 0 0 1 559.5352 682.0566)" fill="#FFFFFF" font-family="'Roboto-Regular'" font-size="52.4445" letter-spacing="23">G</text>
<text transform="matrix(1 0 0 1 619.8281 682.0566)" fill="#FFFFFF" font-family="'Roboto-Regular'" font-size="52.4445" letter-spacing="23">R</text>
<text transform="matrix(1 0 0 1 679.4355 682.0566)" fill="#FFFFFF" font-family="'Roboto-Regular'" font-size="52.4445" letter-spacing="23">AP</text>
<text transform="matrix(1 0 0 1 796.1816 682.0566)" fill="#FFFFFF" font-family="'Roboto-Regular'" font-size="52.4445" letter-spacing="23">H</text>
<text transform="matrix(1 0 0 1 857.8242 682.0566)" fill="#FFFFFF" font-family="'Roboto-Regular'" font-size="52.4445">Y</text>
<path fill="#FFFFFF" d="M645.049,390.374c4.808-5.015,16.25-1.28,24.327,2.894c12.771,6.533,28.704,2.812,36.555-1.805
	c7.846-4.632,15.957-5.205,22.179-1.738c6.176,3.426,8.133-1.301,6.331-5.398c-1.71-4.096-5.311-7.865-8.934-10.893
	c-3.65-3.023-2.449-7.077,3.354-3.238c12.212,7.992,42.022,4.115,56.885-3.224c9.335-4.601,9.037-8.654,1.28-7.705
	c-7.782,0.945-17.943-6.663-25.506-14.564c-7.575-7.917-12.669-10.964-16.326-12.506c-3.679-1.558-5.524-0.5-2.533-2.646
	c3.013-2.146,4.563-7.283,11.657-11.176c7.104-3.904-0.548-10.867-8.182-13.104c-15.037-4.379-36.091-2.249-43.145-0.553
	c-7.04,1.696-9.272-1.568-3.25-3.377c20.805-6.2,44.703-3.812,63.343,5.028c18.607,8.896,37.363,28.473,53.78,36.561
	c16.438,8.102,26.043-1.625,34.146-2.199c5.646-0.385,15.89-4.202,15.195-6.885c-0.664-2.573-4.866-9.954-9.292-13.253
	c-3.775-2.815-3.651-6.746,1.856-5.52c5.48,1.213,17.72,3.869,31.635-1.996c9.293-3.909,20.882-15.626,22.836-20.653
	c-5.641,0.567-20.114-7.119-24.446-14.523c-5.258-9.011-20.266-10.841-31.891-8.304c29.613-22.883,33.677-102.485-25.554-117.54
	c5.649,33.183,27.303,30.991,17.157,74.656c-11.728,50.5-68.2,53.498-98.494,52.466c-29.881-0.99-60.979,10.201-88.111,36.147
	c-27.092,26.004-29.34,50.335-40.696,70.372c-4.033,7.168-22.249,17.896-22.485,19.835
	C610.057,411.239,638.572,396.641,645.049,390.374 M864.331,214.299c0.731-25.88-13.388-41.898-23.156-51.542
	c14.421,5.858,29.97,29.144,26.095,58.35c-4.855,36.884-31.189,47.106-31.189,47.106S863.33,247.774,864.331,214.299
	 M826.994,281.395c14.81,1.501,24.85,8.71,38.896,14.554c15.626,6.509,33.822,2.161,33.822,2.161s-16.825,14.044-42.651,0.376
	c-7.282-3.862-18.102-9.165-26.344-10.985c-18.771-4.146-34.843-4.852-34.843-4.852S798.557,278.517,826.994,281.395
	 M811.563,320.038c-18.915-15.064-53.924-28.18-53.924-28.18s23.756-3.935,61.66,27.53c11.438,9.5,37.713,13.116,37.713,13.116
	S834.88,338.61,811.563,320.038 M648.938,346.149c0,0,35.729-26.771,63.555-13.022c26.286,12.946,32.51,27.479,59.438,27.592
	c-15.539,2.856-27.905,3.625-44.353-9.986c-26.092-21.558-47.892-18.669-83.647,1.719
	C644.255,351.719,648.938,346.149,648.938,346.149"/>
<path fill="#FFFFFF" d="M399.896,405.529c-0.24-1.934-18.452-12.666-22.494-19.828c-11.358-20.047-13.601-44.374-40.691-70.378
	c-27.128-25.946-58.228-37.142-88.117-36.142c-30.297,1.027-86.759-1.97-98.484-52.464c-10.147-43.672,11.499-41.48,17.153-74.663
	c-59.233,15.06-55.17,94.657-25.557,117.54c-11.616-2.537-26.629-0.707-31.892,8.304c-4.33,7.41-18.806,15.09-24.443,14.523
	c1.952,5.027,13.543,16.744,22.837,20.653c13.909,5.864,26.153,3.209,31.635,1.991c5.508-1.221,5.629,2.709,1.856,5.524
	c-4.42,3.3-8.63,10.676-9.296,13.26c-0.691,2.676,9.552,6.493,15.202,6.878c8.094,0.574,17.713,10.305,34.149,2.199
	c16.411-8.083,35.173-27.665,53.776-36.561c18.635-8.845,42.542-11.233,63.341-5.028c6.025,1.805,3.794,5.074-3.251,3.373
	c-7.047-1.691-28.103-3.821-43.141,0.551c-7.632,2.244-15.292,9.207-8.18,13.111c7.086,3.893,8.645,9.03,11.648,11.176
	c3.002,2.14,1.146,1.087-2.527,2.646c-3.653,1.542-8.751,4.59-16.328,12.506c-7.556,7.906-17.718,15.509-25.502,14.564
	c-7.757-0.949-8.058,3.104,1.281,7.705c14.859,7.338,44.672,11.217,56.882,3.225c5.8-3.838,7.001,0.215,3.36,3.238
	c-3.623,3.027-7.227,6.793-8.939,10.887c-1.8,4.104,0.149,8.83,6.34,5.4c6.214-3.456,14.324-2.889,22.171,1.743
	c7.849,4.615,23.783,8.338,36.549,1.806c8.084-4.174,19.522-7.912,24.333-2.895C360.044,396.645,388.557,411.239,399.896,405.529
	 M162.535,268.212c0,0-26.333-10.222-31.196-47.111c-3.866-29.206,11.683-52.487,26.096-58.345
	c-9.766,9.644-23.886,25.663-23.151,51.542C135.287,247.774,162.535,268.212,162.535,268.212 M202.744,282.644
	c0,0-16.072,0.711-34.851,4.856c-8.238,1.821-19.053,7.124-26.337,10.985c-25.838,13.668-42.648-0.376-42.648-0.376
	s18.184,4.348,33.813-2.161c14.051-5.849,24.089-13.053,38.904-14.554C200.056,278.517,202.744,282.644,202.744,282.644
	 M141.602,332.504c0,0,26.273-3.611,37.715-13.116c37.903-31.458,61.657-27.53,61.657-27.53s-35.005,13.116-53.923,28.18
	C163.734,338.605,141.602,332.504,141.602,332.504 M354.689,352.458c-35.763-20.393-57.563-23.274-83.649-1.717
	c-16.45,13.6-28.817,12.835-44.354,9.979c26.933-0.114,33.148-14.642,59.433-27.587c27.827-13.754,63.556,13.017,63.556,13.017
	S354.355,351.719,354.689,352.458"/>
<path fill="none" stroke="#FFFFFF" stroke-width="5" stroke-miterlimit="10" d="M493.02,465.386
	c-8.24-3.315-201.985-84.378-201.985-367.096V71.626l25.069,9.062c20.166,7.292,39.815,10.98,58.401,10.98
	c72.394,0,109.446-55.664,109.81-56.226L500,11.338l15.684,24.115c1.48,2.229,38.099,56.215,109.805,56.215
	c18.598,0,38.242-3.688,58.396-10.98l25.08-9.062V98.29c0,282.718-193.739,363.78-201.991,367.096L500,468.188L493.02,465.386z"/>
<path fill="none" stroke="#FFFFFF" stroke-width="3" stroke-miterlimit="10" d="M500,45.247c0,0-63.94,98.277-190.253,52.641
	C309.747,371.209,500,447.615,500,447.615s190.242-76.406,190.242-349.727C563.919,143.524,500,45.247,500,45.247z"/>
<text transform="matrix(1 0 0 1 412.54 360.9326)" fill="#FFFFFF" font-family="'Arvo'" font-size="241.2452">V</text>
</svg>
