<?xml version="1.0" encoding="utf-8"?>
<!-- Generator: Adobe Illustrator 16.0.0, SVG Export Plug-In . SVG Version: 6.00 Build 0)  -->
<!DOCTYPE svg PUBLIC "-//W3C//DTD SVG 1.1//EN" "http://www.w3.org/Graphics/SVG/1.1/DTD/svg11.dtd">
<svg version="1.1" id="Layer_1" xmlns="http://www.w3.org/2000/svg" xmlns:xlink="http://www.w3.org/1999/xlink" x="0px" y="0px"
	 width="12.5px" height="17.8px" viewBox="0 0 12.5 17.8" style="enable-background:new 0 0 12.5 17.8;" xml:space="preserve">
<path id="placeholder" d="M10.6,1.8L10.6,1.8c-2.4-2.4-6.4-2.4-8.8,0l0,0c-2.2,2.4-2.4,6.1-0.6,8.8l5,7.2l5-7.2
	C13.1,7.9,12.8,4.3,10.6,1.8z M6.3,8.2c-1.1,0-2.1-0.9-2.1-2.1c0-1.1,0.9-2.1,2.1-2.1c1.1,0,2.1,0.9,2.1,2.1
	C8.3,7.3,7.4,8.2,6.3,8.2L6.3,8.2z"/>
</svg>
