<?xml version="1.0" encoding="utf-8"?>
<!-- Generator: Adobe Illustrator 20.0.0, SVG Export Plug-In . SVG Version: 6.00 Build 0)  -->
<svg version="1.1" id="Layer_1" xmlns="http://www.w3.org/2000/svg" xmlns:xlink="http://www.w3.org/1999/xlink" x="0px" y="0px"
	 viewBox="0 0 20 20" style="enable-background:new 0 0 20 20;" xml:space="preserve">
<style type="text/css">
	.st0{fill:none;}
	.st1{fill:#9C9C9C;}
</style>
<g>
	<circle class="st0" cx="10" cy="10" r="10"/>
</g>
<g>
	<path class="st1" d="M10,20C4.5,20,0,15.5,0,10S4.5,0,10,0s10,4.5,10,10S15.5,20,10,20z M10,1c-5,0-9,4-9,9s4,9,9,9s9-4,9-9
		S15,1,10,1z"/>
</g>
<g>
	<path class="st1" d="M15,10c0,0.7-0.6,1.2-1.2,1.2H6.2C5.6,11.2,5,10.7,5,10s0.6-1.2,1.2-1.2h7.5C14.4,8.8,15,9.3,15,10z"/>
</g>
</svg>
