<?xml version="1.0" encoding="utf-8"?>
<!-- Generator: Adobe Illustrator 16.0.0, SVG Export Plug-In . SVG Version: 6.00 Build 0)  -->
<!DOCTYPE svg PUBLIC "-//W3C//DTD SVG 1.1//EN" "http://www.w3.org/Graphics/SVG/1.1/DTD/svg11.dtd">
<svg version="1.1" id="Layer_1" xmlns="http://www.w3.org/2000/svg" xmlns:xlink="http://www.w3.org/1999/xlink" x="0px" y="0px"
	 width="17.2px" height="17.2px" viewBox="0 0 17.2 17.2" style="enable-background:new 0 0 17.2 17.2;" xml:space="preserve">
<g id="group-70" transform="translate(-2349 -4)">
	<path id="XMLID_469_" d="M2361.7,13.9c0,0-1.3-0.6-1.5-0.7c-0.1,0-0.2-0.1-0.3-0.1c-0.2,0-0.3,0.1-0.4,0.3
		c-0.1,0.2-0.5,0.6-0.6,0.8c0,0,0,0,0,0s-0.2-0.1-0.3-0.1c-1-0.5-1.9-1.3-2.5-2.2c0,0,0,0,0-0.1c0,0,0-0.1,0.1-0.1
		c0.1-0.1,0.1-0.2,0.2-0.2c0,0,0.1-0.1,0.1-0.1c0.1-0.1,0.1-0.2,0.2-0.3l0-0.1c0.1-0.2,0.1-0.4,0-0.6c0-0.1-0.6-1.3-0.6-1.5
		c-0.1-0.3-0.3-0.5-0.6-0.5h-0.1c-0.4,0-0.7,0.1-1,0.3c-0.6,0.4-0.9,1.1-0.8,1.9c0.1,0.8,0.4,1.6,0.9,2.2l0,0.1
		c0.8,1.3,2.1,2.4,3.5,3c0.7,0.3,1.4,0.5,2.1,0.5l0,0c0.1,0,0.2,0,0.3,0l0.1,0c0.7-0.1,1.2-0.5,1.6-1.1c0.2-0.4,0.2-0.8,0.1-1.1
		C2362,14,2361.9,13.9,2361.7,13.9z"/>
	<path id="XMLID_470_" d="M2357.7,4c-4.6,0-8.4,3.7-8.5,8.4c0,1.5,0.4,3,1.2,4.2l-1.4,4.3c0,0.1,0,0.2,0.1,0.3c0,0,0.1,0,0.1,0
		l4.5-1.4c4.1,2.2,9.2,0.6,11.4-3.5c0.6-1.2,1-2.5,1-3.9C2366.2,7.7,2362.4,4,2357.7,4z M2357.7,19c-1.3,0-2.6-0.4-3.7-1.1
		c-0.1,0-0.1,0-0.2,0l-2.2,0.7l0.7-2.1c0-0.1,0-0.1,0-0.2c-0.8-1.1-1.3-2.5-1.3-3.9c0-3.7,2.9-6.7,6.6-6.7s6.7,2.9,6.7,6.6
		C2364.5,16,2361.5,19,2357.7,19C2357.8,19,2357.8,19,2357.7,19L2357.7,19z"/>
</g>
</svg>
